HIERARCHY
ROOT Hips
{
	OFFSET 0.000000 89.005402 0.000000
	CHANNELS 6 Xposition Yposition Zposition Xrotation Yrotation Zrotation
	JOINT Spine
	{
		OFFSET 0.116900 10.681000 0.373400
		CHANNELS 3 Xrotation Yrotation Zrotation
		JOINT Spine1
		{
			OFFSET 0.000000 13.840401 0.053500
			CHANNELS 3 Xrotation Yrotation Zrotation
			JOINT Spine2
			{
				OFFSET 0.000000 14.712700 -0.366200
				CHANNELS 3 Xrotation Yrotation Zrotation
				JOINT Neck
				{
					OFFSET 0.000000 35.415497 -3.314200
					CHANNELS 3 Xrotation Yrotation Zrotation
					JOINT Head
					{
						OFFSET 0.000000 16.899200 1.218300
						CHANNELS 3 Xrotation Yrotation Zrotation
						JOINT HeadTop_End
						{
							OFFSET 0.000000 22.206207 2.192500
							CHANNELS 3 Xrotation Yrotation Zrotation
							End Site
							{
								OFFSET 0.000000 22.314178 0.000000
							}
						}
					}
				}
				JOINT LeftShoulder
				{
					OFFSET 12.896400 26.716293 -4.548400
					CHANNELS 3 Xrotation Yrotation Zrotation
					JOINT LeftArm
					{
						OFFSET 19.027000 -4.857010 -1.718400
						CHANNELS 3 Xrotation Yrotation Zrotation
						JOINT LeftForeArm
						{
							OFFSET 24.179897 0.000000 0.000000
							CHANNELS 3 Xrotation Yrotation Zrotation
							JOINT LeftHand
							{
								OFFSET 27.156403 0.000000 0.000000
								CHANNELS 3 Xrotation Yrotation Zrotation
								JOINT LeftHandIndex1
								{
									OFFSET 16.441200 0.000000 0.000000
									CHANNELS 3 Xrotation Yrotation Zrotation
									JOINT LeftHandIndex2
									{
										OFFSET 4.821899 0.000000 0.000000
										CHANNELS 3 Xrotation Yrotation Zrotation
										JOINT LeftHandIndex3
										{
											OFFSET 6.386497 0.000000 0.000000
											CHANNELS 3 Xrotation Yrotation Zrotation
											JOINT LeftHandIndex4
											{
												OFFSET 5.188988 0.000000 0.000000
												CHANNELS 3 Xrotation Yrotation Zrotation
												End Site
												{
													OFFSET -0.178703 5.185913 0.000177
												}
											}
										}
									}
								}
								JOINT LeftHandThumb1
								{
									OFFSET 6.534897 -5.032593 5.900300
									CHANNELS 3 Xrotation Yrotation Zrotation
									JOINT LeftHandThumb2
									{
										OFFSET 3.818176 -2.204422 2.204423
										CHANNELS 3 Xrotation Yrotation Zrotation
										JOINT LeftHandThumb3
										{
											OFFSET 3.252098 -1.877594 1.877601
											CHANNELS 3 Xrotation Yrotation Zrotation
											JOINT LeftHandThumb4
											{
												OFFSET 5.251778 -3.032120 3.032117
												CHANNELS 3 Xrotation Yrotation Zrotation
												End Site
												{
													OFFSET 0.000023 6.780014 0.000000
												}
											}
										}
									}
								}
							}
						}
					}
				}
				JOINT RightShoulder
				{
					OFFSET -12.896300 26.716293 -4.548400
					CHANNELS 3 Xrotation Yrotation Zrotation
					JOINT RightArm
					{
						OFFSET -19.027000 -4.857010 -1.718400
						CHANNELS 3 Xrotation Yrotation Zrotation
						JOINT RightForeArm
						{
							OFFSET -24.179897 0.000000 0.000000
							CHANNELS 3 Xrotation Yrotation Zrotation
							JOINT RightHand
							{
								OFFSET -27.156403 0.000000 0.000000
								CHANNELS 3 Xrotation Yrotation Zrotation
								JOINT RightHandThumb1
								{
									OFFSET -6.591202 -4.852203 5.988100
									CHANNELS 3 Xrotation Yrotation Zrotation
									JOINT RightHandThumb2
									{
										OFFSET -3.818176 -2.204422 2.204423
										CHANNELS 3 Xrotation Yrotation Zrotation
										JOINT RightHandThumb3
										{
											OFFSET -3.252098 -1.877594 1.877601
											CHANNELS 3 Xrotation Yrotation Zrotation
											JOINT RightHandThumb4
											{
												OFFSET -5.251778 -3.032120 3.032117
												CHANNELS 3 Xrotation Yrotation Zrotation
												End Site
												{
													OFFSET -0.000023 6.780014 0.000000
												}
											}
										}
									}
								}
								JOINT RightHandIndex1
								{
									OFFSET -16.029404 0.000000 0.000000
									CHANNELS 3 Xrotation Yrotation Zrotation
									JOINT RightHandIndex2
									{
										OFFSET -5.213303 0.000000 0.000000
										CHANNELS 3 Xrotation Yrotation Zrotation
										JOINT RightHandIndex3
										{
											OFFSET -6.386528 0.000000 0.000000
											CHANNELS 3 Xrotation Yrotation Zrotation
											JOINT RightHandIndex4
											{
												OFFSET -5.189026 0.000000 0.000000
												CHANNELS 3 Xrotation Yrotation Zrotation
												End Site
												{
													OFFSET 0.236702 5.183624 0.001972
												}
											}
										}
									}
								}
							}
						}
					}
				}
			}
		}
	}
	JOINT LeftUpLeg
	{
		OFFSET 14.073000 -7.904099 -1.463000
		CHANNELS 3 Xrotation Yrotation Zrotation
		JOINT LeftLeg
		{
			OFFSET -0.109806 -34.073280 4.093200
			CHANNELS 3 Xrotation Yrotation Zrotation
			JOINT LeftFoot
			{
				OFFSET 0.109806 -29.899420 -6.319000
				CHANNELS 3 Xrotation Yrotation Zrotation
				JOINT LeftToeBase
				{
					OFFSET 1.551100 -14.988700 20.535801
					CHANNELS 3 Xrotation Yrotation Zrotation
					JOINT LeftToe_End
					{
						OFFSET 0.221200 0.570800 13.248301
						CHANNELS 3 Xrotation Yrotation Zrotation
						End Site
						{
							OFFSET 0.000000 13.262435 0.000000
						}
					}
				}
			}
		}
	}
	JOINT RightUpLeg
	{
		OFFSET -13.839300 -7.904099 -1.463000
		CHANNELS 3 Xrotation Yrotation Zrotation
		JOINT RightLeg
		{
			OFFSET 0.109694 -34.073219 4.093300
			CHANNELS 3 Xrotation Yrotation Zrotation
			JOINT RightFoot
			{
				OFFSET -0.109694 -29.899384 -6.319200
				CHANNELS 3 Xrotation Yrotation Zrotation
				JOINT RightToeBase
				{
					OFFSET -1.551100 -14.988700 20.535801
					CHANNELS 3 Xrotation Yrotation Zrotation
					JOINT RightToe_End
					{
						OFFSET -0.221200 0.570900 13.248299
						CHANNELS 3 Xrotation Yrotation Zrotation
						End Site
						{
							OFFSET 0.000000 13.262440 0.000000
						}
					}
				}
			}
		}
	}
}
MOTION
Frames: 4
Frame Time: 0.033333
1.726986 81.355576 -2.851661 -9.288145 13.367107 3.705785 12.478462 -32.859326 -21.410951 2.002742 -4.317668 6.532027 2.414417 -4.138657 6.511135 -2.590479 -5.102026 0.493472 2.111159 -26.130338 12.630858 -0.000000 -0.000001 -0.000000 0.793375 -8.497879 -4.865406 -19.024993 -54.063184 -30.880207 0.000061 -104.820284 0.000029 62.318960 9.739110 14.256613 0.700136 -4.695396 9.454240 0.010362 0.378185 -3.135450 0.002661 -0.192540 1.595709 -0.000000 0.000001 0.000002 -0.876654 5.286135 11.340588 1.214288 6.825807 0.090952 -1.334367 0.780269 2.906851 0.000001 0.000000 0.000000 -1.200566 -8.682294 -6.969754 -17.314374 -18.579378 15.710161 0.000002 54.879535 -0.000009 21.707601 2.263336 -34.802648 -4.831415 -17.369366 -11.252923 7.937397 -7.726285 -0.631214 -0.876730 -10.325675 -3.396518 0.000003 0.000001 -0.000001 3.323452 10.667416 -18.851213 0.369860 -2.241677 18.735822 0.065193 -0.951884 7.835912 0.000001 0.000000 -0.000001 12.260660 5.194645 -6.205813 32.735000 4.083388 -7.776119 -30.701291 8.527756 7.388549 -14.087642 -0.000003 0.000001 -0.000000 -0.000001 -0.000000 -25.742382 14.765349 5.931488 42.520567 -4.561710 -1.538628 -16.154789 -6.263343 3.353666 -5.873180 0.000004 0.000002 -0.000000 0.000000 0.000000 
2.318699 80.818253 -3.728949 -9.014778 9.372585 1.912467 13.115123 -32.156117 -20.142231 1.952882 -4.218070 6.749286 2.355328 -4.068428 6.732850 -2.549497 -5.695693 0.002364 4.159159 -28.108510 14.711865 -0.000000 -0.000001 -0.000000 0.691817 -8.399701 -7.248735 -18.707512 -54.146072 -35.692748 -0.000260 -97.693200 -0.000246 61.857246 10.269296 17.239725 0.809523 -5.241944 9.647285 0.005359 0.272296 -2.256859 0.003531 -0.221001 1.831578 0.000001 -0.000001 0.000001 -1.155529 4.337567 11.590714 2.265788 8.681628 0.449284 -0.993754 1.246225 2.883607 -0.000000 0.000000 -0.000001 -0.845112 -6.717879 -6.325675 -18.733853 -11.287820 13.671833 0.000001 52.955611 0.000000 23.047304 4.461023 -33.613642 -5.150798 -17.173934 -11.222164 8.470574 -8.005911 -0.952354 -0.373923 -11.051617 -3.284186 -0.000000 0.000001 0.000000 3.548536 11.032582 -19.406355 0.385723 -2.287853 19.137125 0.067448 -0.968132 7.970531 0.000002 -0.000000 -0.000000 8.415065 10.181089 -4.756259 42.624619 2.338296 -8.714699 -29.821183 5.985259 7.985726 -18.974558 0.000020 -0.000001 0.000000 -0.000001 -0.000000 -25.335142 15.439718 6.341797 42.714200 -3.169979 -4.068032 -15.405621 -6.297472 6.809289 -5.446570 -0.000014 0.000002 -0.000001 -0.000001 -0.000000 
3.003065 80.217995 -4.633335 -8.963080 5.559827 -0.844427 14.068519 -30.632538 -17.798850 1.931826 -4.068646 7.026076 2.336306 -3.911428 7.016323 -2.348171 -5.844375 -0.213188 4.696689 -29.836913 14.160491 0.000000 0.000001 0.000000 0.696401 -8.503430 -7.240166 -18.981944 -53.036269 -38.518169 0.163974 -89.548261 0.164348 61.665584 12.189360 18.503766 0.936838 -5.834034 9.904990 0.002038 0.167684 -1.389628 0.004506 -0.249718 2.069761 0.000001 0.000001 0.000003 -1.417841 3.296870 11.805350 3.410025 10.710996 0.834879 -0.641649 1.775238 2.860371 -0.000001 -0.000001 -0.000000 -0.416144 -5.037502 -3.830324 -22.494986 -6.147596 11.149993 -0.000001 54.275197 0.000004 25.281636 5.497152 -33.223167 -5.519022 -17.001873 -11.270381 8.978006 -8.273576 -1.248086 0.086363 -11.743784 -3.182251 -0.000000 0.000001 0.000002 3.790256 11.401212 -20.002470 0.388495 -2.295826 19.206509 0.067665 -0.969688 7.983437 -0.000001 0.000000 0.000001 -0.000482 13.928503 2.359214 55.551820 0.290071 -9.348585 -27.444762 5.500368 5.647922 -21.283035 -0.003010 0.323884 -0.000000 -0.000002 -0.000000 -26.588914 15.196802 8.215795 42.469259 -2.577222 -5.058969 -15.284802 -6.590494 8.266265 -4.902869 0.000004 0.000003 0.000000 -0.000001 -0.000000 
3.762447 80.160095 -5.416775 -9.148628 1.913620 -5.055871 15.518497 -28.548900 -14.548479 1.881481 -3.893351 7.451214 2.307850 -3.690553 7.454772 -2.124403 -5.640785 -0.209922 3.549925 -29.434868 11.626006 -0.000000 -0.000002 0.000000 0.735776 -8.849660 -6.565789 -18.926748 -50.107203 -40.559839 0.000186 -80.894759 0.000231 58.196880 13.503421 19.986962 1.071233 -6.409437 10.208588 0.000463 0.079077 -0.655273 0.005391 -0.273023 2.262995 -0.000000 0.000001 0.000002 -1.634102 2.251397 11.952531 4.568824 12.675927 1.220439 -0.332818 2.321619 2.833688 0.000002 -0.000000 -0.000000 0.069089 -3.106107 0.616082 -29.068793 -1.168187 9.891875 0.000002 57.202428 0.000000 28.871298 3.264429 -33.973231 -5.926351 -16.894398 -11.403878 9.472010 -8.481760 -1.501518 0.429234 -12.296358 -3.099006 -0.000000 -0.000000 0.000001 4.074703 11.766589 -20.789422 0.377405 -2.263757 18.927586 0.067520 -0.968631 7.974760 0.000000 -0.000004 0.000003 -9.934301 12.830851 11.917725 64.452718 -4.100516 -9.497364 -23.393196 6.004433 5.030128 -25.402088 -0.059734 0.344077 0.000000 0.000001 0.000000 -27.803093 12.694579 11.774216 40.705216 -6.213900 -3.557277 -16.703175 -6.783832 6.215807 -5.326557 -0.000000 0.000000 0.000001 0.000000 0.000000 
